{
    "asset" : {
        "generator" : "Khronos glTF Blender I/O v1.2.75",
        "version" : "2.0"
    },
    "scene" : 0,
    "scenes" : [
        {
            "name" : "Scene",
            "nodes" : [
                0,
                1
            ]
        }
    ],
    "nodes" : [
        {
            "mesh" : 0,
            "name" : "Windmill"
        },
        {
            "mesh" : 1,
            "name" : "Windblade",
            "translation" : [
                0,
                8.525233268737793,
                0
            ]
        }
    ],
    "materials" : [
        {
            "doubleSided" : true,
            "emissiveFactor" : [
                1,
                1,
                1
            ],
            "emissiveTexture" : {
                "index" : 0,
                "texCoord" : 0
            },
            "name" : "brick",
            "pbrMetallicRoughness" : {}
        },
        {
            "doubleSided" : true,
            "emissiveFactor" : [
                1,
                1,
                1
            ],
            "emissiveTexture" : {
                "index" : 1,
                "texCoord" : 0
            },
            "name" : "roof",
            "pbrMetallicRoughness" : {}
        },
        {
            "doubleSided" : true,
            "emissiveFactor" : [
                1,
                1,
                1
            ],
            "emissiveTexture" : {
                "index" : 2,
                "texCoord" : 0
            },
            "name" : "wood",
            "pbrMetallicRoughness" : {}
        },
        {
            "doubleSided" : true,
            "emissiveFactor" : [
                1,
                1,
                1
            ],
            "emissiveTexture" : {
                "index" : 3,
                "texCoord" : 0
            },
            "name" : "fabric",
            "pbrMetallicRoughness" : {}
        }
    ],
    "meshes" : [
        {
            "name" : "Cube",
            "primitives" : [
                {
                    "attributes" : {
                        "POSITION" : 0,
                        "NORMAL" : 1,
                        "TEXCOORD_0" : 2
                    },
                    "indices" : 3,
                    "material" : 0
                },
                {
                    "attributes" : {
                        "POSITION" : 4,
                        "NORMAL" : 5,
                        "TEXCOORD_0" : 6
                    },
                    "indices" : 7,
                    "material" : 1
                }
            ]
        },
        {
            "name" : "Cube.001",
            "primitives" : [
                {
                    "attributes" : {
                        "POSITION" : 8,
                        "NORMAL" : 9,
                        "TEXCOORD_0" : 10
                    },
                    "indices" : 11,
                    "material" : 2
                },
                {
                    "attributes" : {
                        "POSITION" : 12,
                        "NORMAL" : 13,
                        "TEXCOORD_0" : 14
                    },
                    "indices" : 15,
                    "material" : 3
                }
            ]
        }
    ],
    "textures" : [
        {
            "sampler" : 0,
            "source" : 0
        },
        {
            "sampler" : 1,
            "source" : 1
        },
        {
            "source" : 2
        },
        {
            "sampler" : 2,
            "source" : 3
        }
    ],
    "images" : [
        {
            "mimeType" : "image/png",
            "name" : "brick_lowres",
            "uri" : "textures/brick_lowres.png"
        },
        {
            "mimeType" : "image/png",
            "name" : "tile_lowres",
            "uri" : "textures/tile_lowres.png"
        },
        {
            "mimeType" : "image/png",
            "name" : "wood_lowres",
            "uri" : "textures/wood_lowres.png"
        },
        {
            "mimeType" : "image/png",
            "name" : "fabric_lowres",
            "uri" : "textures/fabric_lowres.png"
        }
    ],
    "accessors" : [
        {
            "bufferView" : 0,
            "componentType" : 5126,
            "count" : 52,
            "max" : [
                2.619213104248047,
                7.986391067504883,
                2.619213104248047
            ],
            "min" : [
                -2.619213104248047,
                -0.013609051704406738,
                -2.619213104248047
            ],
            "type" : "VEC3"
        },
        {
            "bufferView" : 1,
            "componentType" : 5126,
            "count" : 52,
            "type" : "VEC3"
        },
        {
            "bufferView" : 2,
            "componentType" : 5126,
            "count" : 52,
            "type" : "VEC2"
        },
        {
            "bufferView" : 3,
            "componentType" : 5123,
            "count" : 78,
            "type" : "SCALAR"
        },
        {
            "bufferView" : 4,
            "componentType" : 5126,
            "count" : 28,
            "max" : [
                1.2329707145690918,
                9.661341667175293,
                1.2329707145690918
            ],
            "min" : [
                -1.2329707145690918,
                7.986391067504883,
                -1.2329707145690918
            ],
            "type" : "VEC3"
        },
        {
            "bufferView" : 5,
            "componentType" : 5126,
            "count" : 28,
            "type" : "VEC3"
        },
        {
            "bufferView" : 6,
            "componentType" : 5126,
            "count" : 28,
            "type" : "VEC2"
        },
        {
            "bufferView" : 7,
            "componentType" : 5123,
            "count" : 36,
            "type" : "SCALAR"
        },
        {
            "bufferView" : 8,
            "componentType" : 5126,
            "count" : 108,
            "max" : [
                4.981014728546143,
                5.085582733154297,
                4.168756008148193
            ],
            "min" : [
                -5.173133850097656,
                -5.12934684753418,
                -0.2662149667739868
            ],
            "type" : "VEC3"
        },
        {
            "bufferView" : 9,
            "componentType" : 5126,
            "count" : 108,
            "type" : "VEC3"
        },
        {
            "bufferView" : 10,
            "componentType" : 5126,
            "count" : 108,
            "type" : "VEC2"
        },
        {
            "bufferView" : 11,
            "componentType" : 5123,
            "count" : 162,
            "type" : "SCALAR"
        },
        {
            "bufferView" : 12,
            "componentType" : 5126,
            "count" : 16,
            "max" : [
                4.544363975524902,
                4.645575046539307,
                4.145502090454102
            ],
            "min" : [
                -4.720971584320068,
                -4.688603401184082,
                2.6337549686431885
            ],
            "type" : "VEC3"
        },
        {
            "bufferView" : 13,
            "componentType" : 5126,
            "count" : 16,
            "type" : "VEC3"
        },
        {
            "bufferView" : 14,
            "componentType" : 5126,
            "count" : 16,
            "type" : "VEC2"
        },
        {
            "bufferView" : 15,
            "componentType" : 5123,
            "count" : 24,
            "type" : "SCALAR"
        }
    ],
    "bufferViews" : [
        {
            "buffer" : 0,
            "byteLength" : 624,
            "byteOffset" : 0
        },
        {
            "buffer" : 0,
            "byteLength" : 624,
            "byteOffset" : 624
        },
        {
            "buffer" : 0,
            "byteLength" : 416,
            "byteOffset" : 1248
        },
        {
            "buffer" : 0,
            "byteLength" : 156,
            "byteOffset" : 1664
        },
        {
            "buffer" : 0,
            "byteLength" : 336,
            "byteOffset" : 1820
        },
        {
            "buffer" : 0,
            "byteLength" : 336,
            "byteOffset" : 2156
        },
        {
            "buffer" : 0,
            "byteLength" : 224,
            "byteOffset" : 2492
        },
        {
            "buffer" : 0,
            "byteLength" : 72,
            "byteOffset" : 2716
        },
        {
            "buffer" : 0,
            "byteLength" : 1296,
            "byteOffset" : 2788
        },
        {
            "buffer" : 0,
            "byteLength" : 1296,
            "byteOffset" : 4084
        },
        {
            "buffer" : 0,
            "byteLength" : 864,
            "byteOffset" : 5380
        },
        {
            "buffer" : 0,
            "byteLength" : 324,
            "byteOffset" : 6244
        },
        {
            "buffer" : 0,
            "byteLength" : 192,
            "byteOffset" : 6568
        },
        {
            "buffer" : 0,
            "byteLength" : 192,
            "byteOffset" : 6760
        },
        {
            "buffer" : 0,
            "byteLength" : 128,
            "byteOffset" : 6952
        },
        {
            "buffer" : 0,
            "byteLength" : 48,
            "byteOffset" : 7080
        }
    ],
    "samplers" : [
        {
            "magFilter" : 9728,
            "minFilter" : 9984
        },
        {
            "magFilter" : 9728,
            "minFilter" : 9984
        },
        {
            "magFilter" : 9728,
            "minFilter" : 9984
        }
    ],
    "buffers" : [
        {
            "byteLength" : 7128,
            "uri" : "windmill.bin"
        }
    ]
}
